ply
format ascii 1.0
comment tesseract (hypercube) vertices in 4D: x y z w
element vertex 16
property float x
property float y
property float z
property float w
element face 24
property list uchar int vertex_indices
end_header
-0.5 -0.5 -0.5 0.5
0.5 -0.5 -0.5 0.5
0.5 0.5 -0.5 0.5
-0.5 0.5 -0.5 0.5
-0.5 -0.5 0.5 0.5
0.5 -0.5 0.5 0.5
0.5 0.5 0.5 0.5
-0.5 0.5 0.5 0.5
-0.5 -0.5 -0.5 -0.5
0.5 -0.5 -0.5 -0.5
0.5 0.5 -0.5 -0.5
-0.5 0.5 -0.5 -0.5
-0.5 -0.5 0.5 -0.5
0.5 -0.5 0.5 -0.5
0.5 0.5 0.5 -0.5
-0.5 0.5 0.5 -0.5
4 0 1 2 3
4 4 5 6 7
4 0 1 5 4
4 1 2 6 5
4 2 3 7 6
4 3 0 4 7
4 8 9 10 11
4 12 13 14 15
4 8 9 13 12
4 9 10 14 13
4 10 11 15 14
4 11 8 12 15
4 0 1 9 8
4 1 2 10 9
4 2 3 11 10
4 3 0 8 11
4 4 5 13 12
4 5 6 14 13
4 6 7 15 14
4 7 4 12 15
4 0 4 12 8
4 1 5 13 9
4 2 6 14 10
4 3 7 15 11
